<mxfile host="app.diagrams.net" modified="2024-07-06T22:43:42.075Z" agent="Mozilla/5.0 (Windows NT 10.0; Win64; x64) AppleWebKit/537.36 (KHTML, like Gecko) Chrome/126.0.0.0 Safari/537.36" etag="XT5plTpUipLFetzlBkSU" version="24.6.4" type="device">
  <diagram id="C5RBs43oDa-KdzZeNtuy" name="Page-1">
    <mxGraphModel dx="1024" dy="527" grid="1" gridSize="10" guides="1" tooltips="1" connect="1" arrows="1" fold="1" page="1" pageScale="1" pageWidth="1169" pageHeight="827" math="0" shadow="0">
      <root>
        <mxCell id="WIyWlLk6GJQsqaUBKTNV-0" />
        <mxCell id="WIyWlLk6GJQsqaUBKTNV-1" parent="WIyWlLk6GJQsqaUBKTNV-0" />
        <mxCell id="tckXzxHi2TBu_AGnH9uS-98" value="" style="edgeStyle=orthogonalEdgeStyle;rounded=0;orthogonalLoop=1;jettySize=auto;html=1;fontSize=8;" edge="1" parent="WIyWlLk6GJQsqaUBKTNV-1" source="WIyWlLk6GJQsqaUBKTNV-3" target="tckXzxHi2TBu_AGnH9uS-95">
          <mxGeometry relative="1" as="geometry" />
        </mxCell>
        <mxCell id="WIyWlLk6GJQsqaUBKTNV-3" value="&lt;b style=&quot;font-size: 8px;&quot;&gt;UnsortedArray&lt;/b&gt;&lt;div style=&quot;font-size: 8px;&quot;&gt;&lt;div style=&quot;text-align: left; font-size: 8px;&quot;&gt;&lt;font style=&quot;font-size: 8px;&quot;&gt;boolean move = false;&lt;/font&gt;&lt;/div&gt;&lt;div style=&quot;text-align: left; font-size: 8px;&quot;&gt;&lt;font style=&quot;font-size: 8px;&quot;&gt;int temp = 0;&lt;/font&gt;&lt;/div&gt;&lt;div style=&quot;text-align: left; font-size: 8px;&quot;&gt;&lt;font style=&quot;font-size: 8px;&quot;&gt;int left = 0;&lt;/font&gt;&lt;/div&gt;&lt;div style=&quot;text-align: left; font-size: 8px;&quot;&gt;&lt;font style=&quot;font-size: 8px;&quot;&gt;int right = 0;&lt;/font&gt;&lt;/div&gt;&lt;/div&gt;" style="rounded=1;whiteSpace=wrap;html=1;fontSize=8;glass=0;strokeWidth=1;shadow=0;" parent="WIyWlLk6GJQsqaUBKTNV-1" vertex="1">
          <mxGeometry x="214" y="90" width="130" height="60" as="geometry" />
        </mxCell>
        <mxCell id="WIyWlLk6GJQsqaUBKTNV-7" value="i++;" style="rounded=1;whiteSpace=wrap;html=1;fontSize=8;glass=0;strokeWidth=1;shadow=0;" parent="WIyWlLk6GJQsqaUBKTNV-1" vertex="1">
          <mxGeometry x="514" y="310" width="120" height="40" as="geometry" />
        </mxCell>
        <mxCell id="tckXzxHi2TBu_AGnH9uS-32" value="" style="edgeStyle=orthogonalEdgeStyle;rounded=0;orthogonalLoop=1;jettySize=auto;html=1;fillColor=#6d8764;strokeColor=#3A5431;fontSize=8;" edge="1" parent="WIyWlLk6GJQsqaUBKTNV-1" source="WIyWlLk6GJQsqaUBKTNV-10" target="WIyWlLk6GJQsqaUBKTNV-11">
          <mxGeometry relative="1" as="geometry" />
        </mxCell>
        <mxCell id="tckXzxHi2TBu_AGnH9uS-103" value="Yes" style="edgeLabel;html=1;align=center;verticalAlign=middle;resizable=0;points=[];fontSize=8;" vertex="1" connectable="0" parent="tckXzxHi2TBu_AGnH9uS-32">
          <mxGeometry x="0.3374" y="2" relative="1" as="geometry">
            <mxPoint as="offset" />
          </mxGeometry>
        </mxCell>
        <mxCell id="tckXzxHi2TBu_AGnH9uS-84" style="edgeStyle=orthogonalEdgeStyle;rounded=0;orthogonalLoop=1;jettySize=auto;html=1;entryX=0.5;entryY=0;entryDx=0;entryDy=0;fillColor=#e51400;strokeColor=#B20000;fontSize=8;" edge="1" parent="WIyWlLk6GJQsqaUBKTNV-1" source="WIyWlLk6GJQsqaUBKTNV-10" target="WIyWlLk6GJQsqaUBKTNV-7">
          <mxGeometry relative="1" as="geometry" />
        </mxCell>
        <mxCell id="tckXzxHi2TBu_AGnH9uS-104" value="No" style="edgeLabel;html=1;align=center;verticalAlign=middle;resizable=0;points=[];fontSize=8;" vertex="1" connectable="0" parent="tckXzxHi2TBu_AGnH9uS-84">
          <mxGeometry x="-0.6814" relative="1" as="geometry">
            <mxPoint as="offset" />
          </mxGeometry>
        </mxCell>
        <mxCell id="WIyWlLk6GJQsqaUBKTNV-10" value="&lt;div style=&quot;font-size: 8px;&quot;&gt;&lt;font style=&quot;font-size: 8px;&quot;&gt;&lt;br style=&quot;font-size: 8px;&quot;&gt;&lt;/font&gt;&lt;/div&gt;&lt;font style=&quot;font-size: 8px;&quot;&gt;UnsortedArray[i]&amp;nbsp;&lt;/font&gt;&lt;div style=&quot;font-size: 8px;&quot;&gt;&lt;font style=&quot;font-size: 8px;&quot;&gt;&lt;span class=&quot;hljs-operator&quot; style=&quot;font-size: 8px;&quot;&gt;&amp;gt;&lt;/span&gt;&amp;nbsp;&lt;/font&gt;&lt;div style=&quot;font-size: 8px;&quot;&gt;&lt;font style=&quot;font-size: 8px;&quot;&gt;UnsortedArray[i&lt;span class=&quot;hljs-operator&quot; style=&quot;font-size: 8px;&quot;&gt;+&lt;/span&gt;&lt;span class=&quot;hljs-number&quot; style=&quot;font-size: 8px;&quot;&gt;1&lt;/span&gt;]&lt;/font&gt;&lt;/div&gt;&lt;/div&gt;&lt;div style=&quot;font-size: 8px;&quot;&gt;&lt;font style=&quot;font-size: 8px;&quot;&gt;?&lt;/font&gt;&lt;/div&gt;" style="rhombus;whiteSpace=wrap;html=1;shadow=0;fontFamily=Helvetica;fontSize=8;align=center;strokeWidth=1;spacing=6;spacingTop=-4;" parent="WIyWlLk6GJQsqaUBKTNV-1" vertex="1">
          <mxGeometry x="374" y="340" width="100" height="80" as="geometry" />
        </mxCell>
        <mxCell id="tckXzxHi2TBu_AGnH9uS-81" style="edgeStyle=orthogonalEdgeStyle;rounded=0;orthogonalLoop=1;jettySize=auto;html=1;entryX=0.5;entryY=1;entryDx=0;entryDy=0;fontSize=8;" edge="1" parent="WIyWlLk6GJQsqaUBKTNV-1" source="WIyWlLk6GJQsqaUBKTNV-11" target="WIyWlLk6GJQsqaUBKTNV-7">
          <mxGeometry relative="1" as="geometry" />
        </mxCell>
        <mxCell id="WIyWlLk6GJQsqaUBKTNV-11" value="&lt;font style=&quot;font-size: 8px;&quot;&gt;temp = UnsortedArray [i];&lt;br style=&quot;font-size: 8px;&quot;&gt;UnsortedArray[i] =UnsortedArray[i + 1];&lt;br style=&quot;font-size: 8px;&quot;&gt;UnsortedArray[i + 1] = temp&lt;span style=&quot;background-color: initial; font-size: 8px;&quot;&gt;;&lt;/span&gt;&lt;/font&gt;&lt;div style=&quot;font-size: 8px;&quot;&gt;&lt;span style=&quot;font-size: 8px;&quot;&gt;&lt;br style=&quot;font-size: 8px;&quot;&gt;&lt;/span&gt;&lt;div style=&quot;font-size: 8px;&quot;&gt;&lt;font style=&quot;font-size: 8px;&quot;&gt;                move = true;   &lt;/font&gt;&lt;/div&gt;&lt;/div&gt;" style="rounded=1;whiteSpace=wrap;html=1;fontSize=8;glass=0;strokeWidth=1;shadow=0;align=left;" parent="WIyWlLk6GJQsqaUBKTNV-1" vertex="1">
          <mxGeometry x="359" y="450" width="130" height="60" as="geometry" />
        </mxCell>
        <mxCell id="tckXzxHi2TBu_AGnH9uS-18" value="" style="edgeStyle=orthogonalEdgeStyle;rounded=0;orthogonalLoop=1;jettySize=auto;html=1;fontSize=8;" edge="1" parent="WIyWlLk6GJQsqaUBKTNV-1" target="tckXzxHi2TBu_AGnH9uS-16">
          <mxGeometry relative="1" as="geometry">
            <mxPoint x="424.02857142857147" y="240" as="sourcePoint" />
          </mxGeometry>
        </mxCell>
        <mxCell id="tckXzxHi2TBu_AGnH9uS-10" value="&lt;b style=&quot;font-size: 8px;&quot;&gt;SortedArray&lt;/b&gt;" style="rounded=1;whiteSpace=wrap;html=1;fontSize=8;glass=0;strokeWidth=1;shadow=0;" vertex="1" parent="WIyWlLk6GJQsqaUBKTNV-1">
          <mxGeometry x="824" y="90" width="130" height="60" as="geometry" />
        </mxCell>
        <mxCell id="tckXzxHi2TBu_AGnH9uS-67" style="edgeStyle=orthogonalEdgeStyle;rounded=0;orthogonalLoop=1;jettySize=auto;html=1;exitX=0;exitY=0.5;exitDx=0;exitDy=0;entryX=0;entryY=0.5;entryDx=0;entryDy=0;fillColor=#6d8764;strokeColor=#3A5431;fontSize=8;" edge="1" parent="WIyWlLk6GJQsqaUBKTNV-1" source="tckXzxHi2TBu_AGnH9uS-16" target="WIyWlLk6GJQsqaUBKTNV-10">
          <mxGeometry relative="1" as="geometry" />
        </mxCell>
        <mxCell id="tckXzxHi2TBu_AGnH9uS-100" value="Yes" style="edgeLabel;html=1;align=center;verticalAlign=middle;resizable=0;points=[];fontSize=8;" vertex="1" connectable="0" parent="tckXzxHi2TBu_AGnH9uS-67">
          <mxGeometry x="-0.1458" y="1" relative="1" as="geometry">
            <mxPoint as="offset" />
          </mxGeometry>
        </mxCell>
        <mxCell id="tckXzxHi2TBu_AGnH9uS-16" value="&lt;div style=&quot;line-height: 100%; font-size: 8px;&quot;&gt;&lt;div style=&quot;line-height: 100%; font-size: 8px;&quot;&gt;i&lt;/div&gt;&lt;div style=&quot;line-height: 100%; font-size: 8px;&quot;&gt;&amp;nbsp;&amp;lt;&amp;nbsp;&lt;/div&gt;&lt;div style=&quot;text-align: left; line-height: 100%; font-size: 8px;&quot;&gt;&lt;span style=&quot;background-color: initial; font-size: 8px;&quot;&gt;right?&lt;/span&gt;&lt;/div&gt;&lt;/div&gt;" style="rhombus;whiteSpace=wrap;html=1;shadow=0;fontFamily=Helvetica;fontSize=8;align=center;strokeWidth=1;spacing=6;spacingTop=-4;" vertex="1" parent="WIyWlLk6GJQsqaUBKTNV-1">
          <mxGeometry x="374" y="180" width="100" height="80" as="geometry" />
        </mxCell>
        <mxCell id="tckXzxHi2TBu_AGnH9uS-92" value="" style="edgeStyle=orthogonalEdgeStyle;rounded=0;orthogonalLoop=1;jettySize=auto;html=1;fillColor=#6d8764;strokeColor=#3A5431;fontSize=8;" edge="1" parent="WIyWlLk6GJQsqaUBKTNV-1" source="tckXzxHi2TBu_AGnH9uS-34" target="tckXzxHi2TBu_AGnH9uS-36">
          <mxGeometry relative="1" as="geometry" />
        </mxCell>
        <mxCell id="tckXzxHi2TBu_AGnH9uS-109" value="Yes" style="edgeLabel;html=1;align=center;verticalAlign=middle;resizable=0;points=[];fontSize=8;" vertex="1" connectable="0" parent="tckXzxHi2TBu_AGnH9uS-92">
          <mxGeometry x="-0.6907" relative="1" as="geometry">
            <mxPoint y="14" as="offset" />
          </mxGeometry>
        </mxCell>
        <mxCell id="tckXzxHi2TBu_AGnH9uS-152" style="edgeStyle=orthogonalEdgeStyle;rounded=0;orthogonalLoop=1;jettySize=auto;html=1;entryX=0;entryY=0.5;entryDx=0;entryDy=0;fillColor=#e51400;strokeColor=#B20000;" edge="1" parent="WIyWlLk6GJQsqaUBKTNV-1" source="tckXzxHi2TBu_AGnH9uS-34" target="tckXzxHi2TBu_AGnH9uS-51">
          <mxGeometry relative="1" as="geometry" />
        </mxCell>
        <mxCell id="tckXzxHi2TBu_AGnH9uS-153" value="&lt;font style=&quot;font-size: 8px;&quot;&gt;No&lt;/font&gt;" style="edgeLabel;html=1;align=center;verticalAlign=middle;resizable=0;points=[];" vertex="1" connectable="0" parent="tckXzxHi2TBu_AGnH9uS-152">
          <mxGeometry x="-0.0838" y="-1" relative="1" as="geometry">
            <mxPoint as="offset" />
          </mxGeometry>
        </mxCell>
        <mxCell id="tckXzxHi2TBu_AGnH9uS-34" value="&lt;div style=&quot;font-size: 8px;&quot;&gt;&lt;font style=&quot;font-size: 8px;&quot;&gt;&lt;br style=&quot;font-size: 8px;&quot;&gt;&lt;/font&gt;&lt;/div&gt;&lt;font style=&quot;font-size: 8px;&quot;&gt;UnsortedArray[i-1]&amp;nbsp;&lt;/font&gt;&lt;div style=&quot;font-size: 8px;&quot;&gt;&lt;font style=&quot;font-size: 8px;&quot;&gt;&lt;span class=&quot;hljs-operator&quot; style=&quot;font-size: 8px;&quot;&gt;&amp;gt;&lt;/span&gt;&amp;nbsp;&lt;/font&gt;&lt;div style=&quot;font-size: 8px;&quot;&gt;&lt;font style=&quot;font-size: 8px;&quot;&gt;UnsortedArray[i]&lt;br style=&quot;font-size: 8px;&quot;&gt;?&lt;/font&gt;&lt;/div&gt;&lt;/div&gt;" style="rhombus;whiteSpace=wrap;html=1;shadow=0;fontFamily=Helvetica;fontSize=8;align=center;strokeWidth=1;spacing=6;spacingTop=-4;" vertex="1" parent="WIyWlLk6GJQsqaUBKTNV-1">
          <mxGeometry x="662.25" y="340" width="100" height="80" as="geometry" />
        </mxCell>
        <mxCell id="tckXzxHi2TBu_AGnH9uS-52" style="edgeStyle=orthogonalEdgeStyle;rounded=0;orthogonalLoop=1;jettySize=auto;html=1;fontSize=8;" edge="1" parent="WIyWlLk6GJQsqaUBKTNV-1" source="tckXzxHi2TBu_AGnH9uS-36" target="tckXzxHi2TBu_AGnH9uS-51">
          <mxGeometry relative="1" as="geometry" />
        </mxCell>
        <mxCell id="tckXzxHi2TBu_AGnH9uS-36" value="&lt;font style=&quot;font-size: 8px;&quot;&gt;temp = UnsortedArray&lt;span class=&quot;hljs-selector-attr&quot; style=&quot;font-size: 8px;&quot;&gt;[i - 1]&lt;/span&gt;;&lt;br style=&quot;font-size: 8px;&quot;&gt;UnsortedArray&lt;span class=&quot;hljs-selector-attr&quot; style=&quot;font-size: 8px;&quot;&gt;[i - 1]&lt;/span&gt; = UnsortedArray&lt;span class=&quot;hljs-selector-attr&quot; style=&quot;font-size: 8px;&quot;&gt;[i]&lt;/span&gt;;&lt;br style=&quot;font-size: 8px;&quot;&gt;UnsortedArray&lt;span class=&quot;hljs-selector-attr&quot; style=&quot;font-size: 8px;&quot;&gt;[i]&lt;/span&gt; = temp;&lt;/font&gt;&lt;div style=&quot;font-size: 8px;&quot;&gt;&lt;font style=&quot;font-size: 8px;&quot;&gt;&lt;br style=&quot;font-size: 8px;&quot;&gt;move = true;&lt;/font&gt;&lt;/div&gt;" style="rounded=1;whiteSpace=wrap;html=1;fontSize=8;glass=0;strokeWidth=1;shadow=0;align=left;" vertex="1" parent="WIyWlLk6GJQsqaUBKTNV-1">
          <mxGeometry x="647.25" y="500" width="130" height="60" as="geometry" />
        </mxCell>
        <mxCell id="tckXzxHi2TBu_AGnH9uS-155" style="edgeStyle=orthogonalEdgeStyle;rounded=0;orthogonalLoop=1;jettySize=auto;html=1;entryX=0.493;entryY=0.962;entryDx=0;entryDy=0;entryPerimeter=0;" edge="1" parent="WIyWlLk6GJQsqaUBKTNV-1" source="tckXzxHi2TBu_AGnH9uS-51" target="tckXzxHi2TBu_AGnH9uS-120">
          <mxGeometry relative="1" as="geometry">
            <Array as="points">
              <mxPoint x="889" y="350" />
              <mxPoint x="737" y="350" />
              <mxPoint x="737" y="297" />
            </Array>
          </mxGeometry>
        </mxCell>
        <mxCell id="tckXzxHi2TBu_AGnH9uS-51" value="i--;" style="rounded=1;whiteSpace=wrap;html=1;fontSize=8;glass=0;strokeWidth=1;shadow=0;" vertex="1" parent="WIyWlLk6GJQsqaUBKTNV-1">
          <mxGeometry x="829" y="393" width="120" height="40" as="geometry" />
        </mxCell>
        <mxCell id="tckXzxHi2TBu_AGnH9uS-112" value="" style="edgeStyle=orthogonalEdgeStyle;rounded=0;orthogonalLoop=1;jettySize=auto;html=1;fontSize=8;fillColor=#6d8764;strokeColor=#3A5431;" edge="1" parent="WIyWlLk6GJQsqaUBKTNV-1" source="tckXzxHi2TBu_AGnH9uS-55" target="tckXzxHi2TBu_AGnH9uS-10">
          <mxGeometry relative="1" as="geometry" />
        </mxCell>
        <mxCell id="tckXzxHi2TBu_AGnH9uS-113" value="&lt;font style=&quot;font-size: 8px;&quot;&gt;Yes&lt;/font&gt;" style="edgeLabel;html=1;align=center;verticalAlign=middle;resizable=0;points=[];fontSize=8;" vertex="1" connectable="0" parent="tckXzxHi2TBu_AGnH9uS-112">
          <mxGeometry x="0.3143" y="-1" relative="1" as="geometry">
            <mxPoint as="offset" />
          </mxGeometry>
        </mxCell>
        <mxCell id="tckXzxHi2TBu_AGnH9uS-118" style="edgeStyle=orthogonalEdgeStyle;rounded=0;orthogonalLoop=1;jettySize=auto;html=1;entryX=1;entryY=0.5;entryDx=0;entryDy=0;fillColor=#e51400;strokeColor=#B20000;" edge="1" parent="WIyWlLk6GJQsqaUBKTNV-1" source="tckXzxHi2TBu_AGnH9uS-55" target="tckXzxHi2TBu_AGnH9uS-95">
          <mxGeometry relative="1" as="geometry">
            <Array as="points">
              <mxPoint x="754" y="220" />
              <mxPoint x="754" y="120" />
            </Array>
          </mxGeometry>
        </mxCell>
        <mxCell id="tckXzxHi2TBu_AGnH9uS-119" value="&lt;font style=&quot;font-size: 8px;&quot;&gt;No&lt;/font&gt;" style="edgeLabel;html=1;align=center;verticalAlign=middle;resizable=0;points=[];" vertex="1" connectable="0" parent="tckXzxHi2TBu_AGnH9uS-118">
          <mxGeometry x="0.201" y="1" relative="1" as="geometry">
            <mxPoint as="offset" />
          </mxGeometry>
        </mxCell>
        <mxCell id="tckXzxHi2TBu_AGnH9uS-55" value="&lt;div style=&quot;line-height: 100%; font-size: 8px;&quot;&gt;&lt;div style=&quot;font-size: 8px; line-height: 100%;&quot;&gt;move = false?&lt;br style=&quot;font-size: 8px;&quot;&gt;&lt;/div&gt;&lt;/div&gt;" style="rhombus;whiteSpace=wrap;html=1;shadow=0;fontFamily=Helvetica;fontSize=8;align=center;strokeWidth=1;spacing=6;spacingTop=-4;" vertex="1" parent="WIyWlLk6GJQsqaUBKTNV-1">
          <mxGeometry x="839" y="180" width="100" height="80" as="geometry" />
        </mxCell>
        <mxCell id="tckXzxHi2TBu_AGnH9uS-82" style="edgeStyle=orthogonalEdgeStyle;rounded=0;orthogonalLoop=1;jettySize=auto;html=1;entryX=0.5;entryY=1;entryDx=0;entryDy=0;fontSize=8;" edge="1" parent="WIyWlLk6GJQsqaUBKTNV-1" source="WIyWlLk6GJQsqaUBKTNV-7" target="tckXzxHi2TBu_AGnH9uS-16">
          <mxGeometry relative="1" as="geometry" />
        </mxCell>
        <mxCell id="tckXzxHi2TBu_AGnH9uS-99" value="" style="edgeStyle=orthogonalEdgeStyle;rounded=0;orthogonalLoop=1;jettySize=auto;html=1;fontSize=8;" edge="1" parent="WIyWlLk6GJQsqaUBKTNV-1" source="tckXzxHi2TBu_AGnH9uS-95" target="tckXzxHi2TBu_AGnH9uS-16">
          <mxGeometry relative="1" as="geometry" />
        </mxCell>
        <mxCell id="tckXzxHi2TBu_AGnH9uS-95" value="&lt;div style=&quot;font-size: 8px;&quot;&gt;&lt;div style=&quot;text-align: left; font-size: 8px;&quot;&gt;&lt;font style=&quot;font-size: 8px;&quot;&gt;int i = left;&lt;/font&gt;&lt;/div&gt;&lt;/div&gt;" style="rounded=1;whiteSpace=wrap;html=1;fontSize=8;glass=0;strokeWidth=1;shadow=0;" vertex="1" parent="WIyWlLk6GJQsqaUBKTNV-1">
          <mxGeometry x="359" y="90" width="130" height="60" as="geometry" />
        </mxCell>
        <mxCell id="tckXzxHi2TBu_AGnH9uS-105" style="edgeStyle=orthogonalEdgeStyle;rounded=0;orthogonalLoop=1;jettySize=auto;html=1;fillColor=#e51400;strokeColor=#B20000;fontSize=8;entryX=0;entryY=0.5;entryDx=0;entryDy=0;" edge="1" parent="WIyWlLk6GJQsqaUBKTNV-1" source="tckXzxHi2TBu_AGnH9uS-16" target="tckXzxHi2TBu_AGnH9uS-141">
          <mxGeometry relative="1" as="geometry">
            <mxPoint x="584.4999999999998" y="170" as="targetPoint" />
            <Array as="points">
              <mxPoint x="585" y="220" />
              <mxPoint x="585" y="170" />
            </Array>
          </mxGeometry>
        </mxCell>
        <mxCell id="tckXzxHi2TBu_AGnH9uS-106" value="No" style="edgeLabel;html=1;align=center;verticalAlign=middle;resizable=0;points=[];fontSize=8;" vertex="1" connectable="0" parent="tckXzxHi2TBu_AGnH9uS-105">
          <mxGeometry x="0.0514" y="-1" relative="1" as="geometry">
            <mxPoint as="offset" />
          </mxGeometry>
        </mxCell>
        <mxCell id="tckXzxHi2TBu_AGnH9uS-138" style="edgeStyle=orthogonalEdgeStyle;rounded=0;orthogonalLoop=1;jettySize=auto;html=1;entryX=0;entryY=0.5;entryDx=0;entryDy=0;fillColor=#e51400;strokeColor=#B20000;" edge="1" parent="WIyWlLk6GJQsqaUBKTNV-1" source="tckXzxHi2TBu_AGnH9uS-120" target="tckXzxHi2TBu_AGnH9uS-132">
          <mxGeometry relative="1" as="geometry" />
        </mxCell>
        <mxCell id="tckXzxHi2TBu_AGnH9uS-139" value="No" style="edgeLabel;html=1;align=center;verticalAlign=middle;resizable=0;points=[];fontSize=8;" vertex="1" connectable="0" parent="tckXzxHi2TBu_AGnH9uS-138">
          <mxGeometry x="-0.0178" y="2" relative="1" as="geometry">
            <mxPoint as="offset" />
          </mxGeometry>
        </mxCell>
        <mxCell id="tckXzxHi2TBu_AGnH9uS-150" style="edgeStyle=orthogonalEdgeStyle;rounded=0;orthogonalLoop=1;jettySize=auto;html=1;entryX=0;entryY=0.5;entryDx=0;entryDy=0;exitX=0;exitY=0.5;exitDx=0;exitDy=0;fillColor=#6d8764;strokeColor=#3A5431;" edge="1" parent="WIyWlLk6GJQsqaUBKTNV-1" source="tckXzxHi2TBu_AGnH9uS-120" target="tckXzxHi2TBu_AGnH9uS-34">
          <mxGeometry relative="1" as="geometry" />
        </mxCell>
        <mxCell id="tckXzxHi2TBu_AGnH9uS-151" value="Yes" style="edgeLabel;html=1;align=center;verticalAlign=middle;resizable=0;points=[];fontSize=8;" vertex="1" connectable="0" parent="tckXzxHi2TBu_AGnH9uS-150">
          <mxGeometry x="-0.1626" y="-1" relative="1" as="geometry">
            <mxPoint as="offset" />
          </mxGeometry>
        </mxCell>
        <mxCell id="tckXzxHi2TBu_AGnH9uS-120" value="&lt;div style=&quot;line-height: 100%; font-size: 8px;&quot;&gt;&lt;div style=&quot;line-height: 100%; font-size: 8px;&quot;&gt;i&lt;/div&gt;&lt;div style=&quot;line-height: 100%; font-size: 8px;&quot;&gt;&amp;nbsp;&amp;gt;&amp;nbsp;&lt;/div&gt;&lt;div style=&quot;text-align: left; line-height: 100%; font-size: 8px;&quot;&gt;&lt;span style=&quot;background-color: initial; font-size: 8px;&quot;&gt;left?&lt;/span&gt;&lt;/div&gt;&lt;/div&gt;" style="rhombus;whiteSpace=wrap;html=1;shadow=0;fontFamily=Helvetica;fontSize=8;align=center;strokeWidth=1;spacing=6;spacingTop=-4;" vertex="1" parent="WIyWlLk6GJQsqaUBKTNV-1">
          <mxGeometry x="662.25" y="210" width="100" height="70" as="geometry" />
        </mxCell>
        <mxCell id="tckXzxHi2TBu_AGnH9uS-149" value="" style="edgeStyle=orthogonalEdgeStyle;rounded=0;orthogonalLoop=1;jettySize=auto;html=1;" edge="1" parent="WIyWlLk6GJQsqaUBKTNV-1" source="tckXzxHi2TBu_AGnH9uS-132" target="tckXzxHi2TBu_AGnH9uS-55">
          <mxGeometry relative="1" as="geometry" />
        </mxCell>
        <mxCell id="tckXzxHi2TBu_AGnH9uS-132" value="left++;" style="rounded=1;whiteSpace=wrap;html=1;fontSize=8;glass=0;strokeWidth=1;shadow=0;" vertex="1" parent="WIyWlLk6GJQsqaUBKTNV-1">
          <mxGeometry x="829" y="300" width="120" height="40" as="geometry" />
        </mxCell>
        <mxCell id="tckXzxHi2TBu_AGnH9uS-161" value="" style="edgeStyle=orthogonalEdgeStyle;rounded=0;orthogonalLoop=1;jettySize=auto;html=1;" edge="1" parent="WIyWlLk6GJQsqaUBKTNV-1" source="tckXzxHi2TBu_AGnH9uS-140" target="tckXzxHi2TBu_AGnH9uS-120">
          <mxGeometry relative="1" as="geometry" />
        </mxCell>
        <mxCell id="tckXzxHi2TBu_AGnH9uS-140" value="&lt;div style=&quot;font-size: 8px;&quot;&gt;&lt;div style=&quot;font-size: 8px;&quot;&gt;i = right;&lt;/div&gt;&lt;/div&gt;" style="rounded=1;whiteSpace=wrap;html=1;fontSize=8;glass=0;strokeWidth=1;shadow=0;align=center;" vertex="1" parent="WIyWlLk6GJQsqaUBKTNV-1">
          <mxGeometry x="680" y="150" width="64.5" height="40" as="geometry" />
        </mxCell>
        <mxCell id="tckXzxHi2TBu_AGnH9uS-160" value="" style="edgeStyle=orthogonalEdgeStyle;rounded=0;orthogonalLoop=1;jettySize=auto;html=1;" edge="1" parent="WIyWlLk6GJQsqaUBKTNV-1" source="tckXzxHi2TBu_AGnH9uS-141" target="tckXzxHi2TBu_AGnH9uS-140">
          <mxGeometry relative="1" as="geometry" />
        </mxCell>
        <mxCell id="tckXzxHi2TBu_AGnH9uS-141" value="&lt;div style=&quot;font-size: 8px;&quot;&gt;&lt;div style=&quot;font-size: 8px;&quot;&gt;&lt;span style=&quot;&quot;&gt;right--;&lt;/span&gt;&lt;br&gt;&lt;/div&gt;&lt;/div&gt;" style="rounded=1;whiteSpace=wrap;html=1;fontSize=8;glass=0;strokeWidth=1;shadow=0;align=center;" vertex="1" parent="WIyWlLk6GJQsqaUBKTNV-1">
          <mxGeometry x="595.5" y="150" width="64.5" height="40" as="geometry" />
        </mxCell>
      </root>
    </mxGraphModel>
  </diagram>
</mxfile>
